<?xml version="1.0" encoding="UTF-8" standalone="no"?>
<!-- Generator: Adobe Illustrator 15.1.0, SVG Export Plug-In . SVG Version: 6.00 Build 0)  -->

<svg
   xmlns:dc="http://purl.org/dc/elements/1.1/"
   xmlns:cc="http://creativecommons.org/ns#"
   xmlns:rdf="http://www.w3.org/1999/02/22-rdf-syntax-ns#"
   xmlns:svg="http://www.w3.org/2000/svg"
   xmlns="http://www.w3.org/2000/svg"
   xmlns:sodipodi="http://sodipodi.sourceforge.net/DTD/sodipodi-0.dtd"
   xmlns:inkscape="http://www.inkscape.org/namespaces/inkscape"
   version="1.1"
   id="Laag_1"
   x="0px"
   y="0px"
   width="264"
   height="264"
   viewBox="0 0 263.99999 263.99999"
   enable-background="new 0 0 595.275 841.89"
   xml:space="preserve"
   inkscape:version="0.91 r13725"
   sodipodi:docname="icon.svg"><metadata
     id="metadata3123"><rdf:RDF><cc:Work
         rdf:about=""><dc:format>image/svg+xml</dc:format><dc:type
           rdf:resource="http://purl.org/dc/dcmitype/StillImage" /><dc:title></dc:title></cc:Work></rdf:RDF></metadata><defs
     id="defs3121" /><sodipodi:namedview
     pagecolor="#ffffff"
     bordercolor="#666666"
     borderopacity="1"
     objecttolerance="10"
     gridtolerance="10"
     guidetolerance="10"
     inkscape:pageopacity="0"
     inkscape:pageshadow="2"
     inkscape:window-width="1920"
     inkscape:window-height="1043"
     id="namedview3119"
     showgrid="false"
     fit-margin-top="0"
     fit-margin-left="0"
     fit-margin-right="0"
     fit-margin-bottom="0"
     inkscape:zoom="2.53"
     inkscape:cx="116.44878"
     inkscape:cy="120.36572"
     inkscape:window-x="1920"
     inkscape:window-y="0"
     inkscape:window-maximized="1"
     inkscape:current-layer="Laag_1" /><g
     id="g3075"
     transform="translate(-156.17601,-287.53501)"><path
       d="m 265.179,296.629 c -2.419,0.715 -10.374,3.543 -11.194,9.952 -0.042,0.328 -0.066,0.675 -0.066,1.038 0,0.178 0.023,0.37 0.036,0.556 -1.026,-0.029 -1.974,-0.06 -2.613,-0.081 l -6.533,-0.134 -2.355,0.416 c -2.803,0.455 -10.366,1.689 -10.521,9.463 -0.022,0.516 -0.112,2.565 -0.112,2.565 0,4.618 0.945,9.659 2.66,14.196 0.505,1.356 1.275,2.397 1.838,3.158 0.007,0.01 0.337,0.485 0.436,0.628 0.985,3.878 2.63,7.063 4.593,9.875 -5.303,0.637 -10.653,1.5 -15.928,3.084 l 1.066,-0.198 c -2.879,0.215 -5.638,1.747 -8.435,4.68 l -0.258,0.271 -0.215,0.307 c -0.936,1.334 -1.613,2.639 -2.06,3.933 -10.899,3.227 -19.871,5.986 -27.15,8.366 -6.418,2.116 -19.194,7.553 -19.734,7.784 l -0.349,0.148 c 0,0 -0.075,0.05 -0.097,0.064 -0.092,0.038 -0.189,0.079 -0.189,0.079 -9.772,3.979 -11.823,10.708 -11.823,15.653 0,7.768 6.029,9.923 8.927,10.959 0.654,0.234 1.331,0.476 1.679,0.672 3.905,2.138 7.655,1.4 10.393,0.861 l 1.854,-0.323 c 1.343,-0.165 2.82,-0.602 4.292,-1.064 1.354,2.839 3.833,5.464 7.725,6.214 3.327,0.651 5.545,0.036 7.33,-0.606 0.1,1 0.303,1.997 0.714,2.966 0.688,1.622 1.835,3.111 3.262,4.376 -2.357,1.846 -5.703,5.165 -5.703,9.197 0,0.361 0.027,0.729 0.084,1.101 -0.001,-0.004 0.04,0.275 0.04,0.275 0.307,2.152 1.121,7.87 8.946,11.076 3.01,1.233 6.493,1.582 10.397,1.082 0.343,1.18 0.859,2.292 1.543,3.302 -2.153,1.063 -2.638,1.431 -2.969,1.697 l -0.11,0.091 c -1.434,1.225 -3.523,3.138 -5.099,5.596 -0.654,0.978 -2.626,4.266 -2.626,8.012 0,0.676 0.064,1.367 0.212,2.063 0.5,2.346 1.843,4.267 3.886,5.555 2.846,1.757 5.953,1.939 8.35,1.711 0.39,2.522 2.24,5.401 7.957,7.077 l 0.365,0.108 c 1.839,0.561 4.318,0.464 9.545,0.019 l 2.101,-0.161 c 0.633,-0.022 1.694,-0.181 2.934,-0.402 0.002,2.568 0.757,4.852 2.194,6.552 l 0.104,0.119 c 3.238,3.594 8.116,4.568 10.063,4.821 2.17,0.302 4.938,-0.622 10.306,-2.809 l 1.313,-0.526 c 0.262,-0.104 0.913,-0.294 1.68,-0.507 0.208,0.279 0.355,0.571 0.612,0.836 1.157,1.192 3.228,2.589 6.518,2.475 3.002,-0.079 8.064,-1.205 8.631,-1.333 l 0.303,-0.068 0.291,-0.104 c 6.256,-2.256 26.881,-9.729 29.636,-11.211 l 0.104,-0.058 c 2.284,-1.153 20.584,-6.992 28.398,-9.485 l 5.619,-1.8 c 8.234,-2.592 15.795,-8.443 17.974,-10.713 l 0.08,-0.086 c 1.824,-1.99 3.013,-4.721 3.534,-8.114 0.058,-0.361 0.085,-0.72 0.085,-1.073 0,-1.783 -0.695,-3.473 -1.623,-5.072 4.28,-1.911 8.458,-3.777 8.578,-3.831 1.535,-0.568 5.479,-2.333 7.13,-5.978 0.386,-0.854 0.558,-1.691 0.61,-2.508 4.566,-1.171 9.604,-2.463 9.604,-2.463 0.005,-10e-4 0.157,-0.037 0.157,-0.037 2.896,-0.687 10.587,-2.51 17.75,-6.059 6.698,-3.242 7.983,-7.083 7.983,-10.321 0,-0.439 -0.023,-0.867 -0.061,-1.281 l -0.023,-0.294 -0.024,0.374 c 0.031,-0.241 0.046,-0.485 0.046,-0.729 0,-3.359 -2.779,-6.946 -5.33,-8.819 -0.041,-0.145 -0.069,-0.246 -0.069,-0.246 -1.617,-1.948 -4.032,-2.075 -5.192,-2.136 l 0.13,0.009 -1.424,-0.233 c -1.843,-0.388 -3.847,-0.686 -8.129,-0.591 -0.101,-1.289 -0.302,-2.528 -0.703,-3.68 -2.536,-7.606 -9.25,-13.038 -17.088,-13.782 -4.909,-0.617 -8.712,-0.396 -12.802,-0.048 3.515,-4.11 7.123,-8.759 8.071,-11.532 0.823,-2.34 2.339,-13.023 2.412,-14.016 l 0.011,-0.148 0.021,-1.373 c 0,-2.946 -0.297,-4.947 -0.544,-6.562 -0.018,-0.161 -0.311,-2.805 -0.339,-3.066 -0.234,-7.084 -1.417,-13.375 -1.655,-14.576 l -2.369,-11.763 -7.08,9.645 c -0.924,1.278 -2.061,2.809 -2.552,3.426 -1.411,1.083 -7.929,5.593 -12.861,8.683 -1.104,-4.446 -3.74,-8.358 -7.917,-11.349 l -0.188,-0.134 -0.199,-0.117 c -5.254,-3.073 -11.029,-5.929 -17.655,-6.018 -6.641,-0.228 -12.822,1.125 -18.374,4.023 -3.375,1.823 -5.871,4.483 -8.073,6.83 -1.384,1.471 -2.665,2.835 -4.027,3.912 l 0.263,-0.194 c -1.202,0.829 -2.318,1.708 -3.396,2.6 -0.834,-4.379 -1.804,-9.287 -3.965,-14.064 -2.622,-5.611 -6.123,-10.455 -11.028,-15.291 -2.383,-2.447 -6.753,-4.326 -9.152,-5.229 l -0.289,-0.103 -1.498,-0.504 -1.608,0.472 z"
       id="path3077"
       inkscape:connector-curvature="0"
       style="fill:#ffffff" /></g><g
     id="g3079"
     transform="translate(-156.17601,-287.53501)"><g
       id="g3081"><path
         d="m 203.545,424.388 c -0.285,-1.782 2.069,-4.353 4.491,-6.065 2.498,-1.709 6.492,-3.492 8.921,-4.349 2.422,-0.787 4.135,-1.356 5.489,-1.787 7.849,-2.709 25.539,-8.913 26.252,-9.196 0.783,-0.361 40.942,-13.483 44.368,-14.201 3.349,-0.713 17.759,-7.127 19.263,-8.414 0.992,-0.856 30.168,-4.209 33.951,-2.353 3.705,1.853 -1.213,14.554 5.565,12.697 6.696,-1.853 27.599,-5.136 31.308,0.853 3.709,5.996 0.718,8.992 -1.922,10.131 -2.57,1.074 -51.144,13.197 -51.144,13.197 0,0 -69.194,18.688 -71.833,19.114 -2.067,0.361 -16.332,4.783 -21.756,6.562 -1.496,0.5 0.215,-0.069 -2.636,0.787 -3.642,1.065 -2.998,0.5 -4.64,0.213 -3.637,-0.713 -6.42,-3.213 -6.707,-6.631 -0.284,-3.353 5.353,-5.278 4.927,-5.278 -0.429,0 -10.629,5.209 -17.976,2.213 -5.493,-2.214 -5.636,-5.641 -5.921,-7.493"
         id="path3083"
         inkscape:connector-curvature="0"
         style="fill:#ffffff" /><path
         d="m 229.026,442.829 c 0,0 36.952,-11.479 40.946,-12.984 3.993,-1.495 47.358,-13.41 50.358,-14.049 2.922,-0.644 33.455,-10.062 36.942,-10.988 3.496,-0.926 26.542,-7.062 26.542,-7.062 0,0 7.349,-1.778 14.767,-2.135 7.418,-0.287 7.627,0.569 10.34,0.783 2.713,0.143 1.069,0.713 1.931,1 0.782,0.213 4.131,3.635 3.922,5.278 -0.218,1.64 1.635,4.422 -5.14,7.7 -6.774,3.357 -14.123,5.066 -16.836,5.71 -2.705,0.639 -15.837,4.062 -15.837,4.062 0,0 3.218,1.5 2.218,3.713 -1,2.209 -4.496,3.422 -4.496,3.422 l -16.619,7.423 c 0,0 4.14,1.208 4.705,2.065 0.574,0.856 2.07,2.996 1.853,4.348 -0.209,1.361 -0.713,3.787 -2.278,5.496 -1.574,1.64 -8.418,7.062 -15.906,9.419 -7.487,2.422 -32.315,10.196 -34.951,11.696 -2.644,1.422 -28.963,10.91 -28.963,10.91 0,0 -5.062,1.144 -7.703,1.213 -4.135,0.144 -3.851,-4.279 -3.851,-4.279 0,0 -5.348,1.287 -6.707,1.857 -1.353,0.5 -7.488,3.209 -9.055,2.991 -1.644,-0.213 -4.996,-0.995 -6.99,-3.209 -1.929,-2.282 -0.642,-6.844 0.069,-7.349 0.642,-0.5 2.138,-2.848 2.138,-2.848 0,0 -9.412,2.209 -11.341,2.278 -1.852,0.069 -8.344,0.861 -9.987,0.36 -1.637,-0.504 -5.489,-1.356 -4.776,-4.352 0.713,-3.07 2.639,-5.349 4.707,-6.205 2.069,-0.861 -7.49,2.635 -7.49,2.635 0,0 -4.563,1.644 -7.916,-0.426 -3.283,-2.07 -1.213,-6.779 0.07,-8.701 1.282,-2 3.139,-3.64 4.137,-4.492 1.065,-0.858 11.197,-5.28 11.197,-5.28"
         id="path3085"
         inkscape:connector-curvature="0"
         style="fill:#005ea8" /></g><path
       d="m 170.592,381.088 c 0,0 13.049,-5.561 19.328,-7.631 14.408,-4.709 32.17,-9.844 38.021,-11.558 5.562,-1.709 22.752,-6.918 37.304,-11.34 11.56,-3.496 21.541,-6.492 22.614,-6.774 2.494,-0.57 52.425,-16.267 54.068,-14.341 1.64,1.853 6.778,6.492 6.492,13.201 -0.287,6.774 -12.697,23.25 -14.837,24.39 -2.213,1.073 -39.16,8.349 -39.16,8.349 0,0 19.115,-7.562 19.968,0.286 0.791,7.845 -14.836,10.628 -15.619,11.054 -0.782,0.5 -31.028,9.987 -53.709,17.263 -15.056,4.848 -24.753,8.557 -25.683,8.7 -2.422,0.214 -6.631,3.496 -10.843,1.856 -2.851,-1.139 -6.487,-4.348 -4.849,-8.344 1.642,-4.07 5.138,-4.853 5.138,-4.853 0,0 -2.284,0.782 -7.133,1.644 -4.853,0.783 -5.709,2.635 -9.703,1.853 -4.063,-0.783 -5.138,-5.636 -4.924,-6.992 0.285,-1.353 -5.703,1.427 -8.629,1.787 -2.996,0.356 -6.207,1.709 -9.203,0.069 -2.919,-1.644 -8.059,-1.644 -8.059,-7.274 0,-8.705 8.777,-10.849 9.418,-11.345"
       id="path3087"
       inkscape:connector-curvature="0"
       style="fill:#e2001a" /><path
       d="m 349.48,342.02 c 0,-0.004 -0.539,-2.235 -0.539,-2.235 -0.47,-1.83 -1.048,-4.104 -1.096,-5.074 -0.461,-4.062 -2.609,-7.492 -6.392,-10.201 -4.675,-2.735 -9.736,-5.266 -15.211,-5.335 -5.8,-0.213 -11.175,0.948 -15.979,3.457 -2.6,1.404 -4.704,3.648 -6.744,5.822 -1.431,1.521 -2.908,3.096 -4.569,4.409 -2.005,1.383 -3.866,3.005 -5.666,4.569 l -3.181,2.705 c -0.071,0.018 -0.438,0.178 -0.548,0.126 l -0.072,-0.126 c -0.649,-2.443 -1.126,-4.957 -1.589,-7.388 -0.842,-4.427 -1.709,-9.005 -3.7,-13.405 -2.351,-5.031 -5.542,-9.432 -10.045,-13.858 -2.018,-2.083 -7.159,-3.974 -7.376,-4.057 l -0.09,-0.03 -0.089,0.026 c -0.296,0.087 -7.184,2.148 -7.651,5.792 -0.235,1.844 1.211,3.718 4.303,5.57 -0.005,0 0.069,0.061 0.137,0.113 -0.854,0.569 -7.921,0.335 -12.21,0.191 l -5.979,-0.122 c -0.055,0.009 -1.87,0.331 -1.87,0.331 -2.97,0.483 -6.338,1.022 -6.398,4.657 -0.071,0.795 -0.106,1.609 -0.106,2.448 0,4.005 0.819,8.414 2.337,12.428 0.264,0.708 0.73,1.344 1.181,1.952 0.443,0.608 0.867,1.183 1.103,1.821 1.52,6.648 5.472,10.979 9.659,15.571 0,0 0.048,0.057 0.069,0.078 -0.247,0.022 -0.502,0.048 -0.502,0.048 -7.894,0.739 -16.064,1.505 -23.809,3.831 -1.567,0.117 -3.285,1.147 -5.188,3.144 -1.232,1.757 -1.789,3.235 -1.789,4.696 -0.063,0.426 -0.089,0.856 -0.089,1.292 0,2.447 0.943,4.961 2.922,7.783 2.604,4.1 5.494,7.409 8.829,10.118 4.229,3.187 8.855,5.404 15.006,7.188 2.715,0.839 4.933,-0.718 7.083,-2.227 1.024,-0.718 2.092,-1.396 3.196,-1.865 -1.599,2.87 -2.836,6.4 -2.836,9.822 0,2.597 0.698,5.105 2.481,7.162 2.002,2.156 4.87,3.235 7.399,4.078 1.5,0.278 2.926,0.248 4.435,0.209 l 2.842,0.018 c 3.161,-0.2 6.434,-1.892 8.375,-4.313 5.62,-8.331 8.45,-17.206 8.45,-26.441 0,-1.065 -0.039,-2.14 -0.115,-3.214 0.04,-0.087 0.315,-0.7 0.315,-0.7 0,0 0.106,-0.23 0.211,-0.452 0.359,0.326 2.567,2.313 2.567,2.313 2.753,2.156 2.879,2.439 4.432,5.866 l 3.13,6.601 c 0.792,1.548 1.161,3.796 1.161,6.526 0,12.388 -7.631,34.673 -18.38,46.578 -2.387,2.648 -3.565,4.548 -3.565,5.757 0,0.309 0.076,0.57 0.227,0.792 1.261,1.809 7.196,-0.475 7.868,-0.744 l 0.084,-0.03 0.048,-0.078 c 0.152,-0.239 15.132,-24.016 19.937,-42.952 0.792,-3.117 1.279,-6.631 1.279,-10.249 0,-7.431 -2.044,-15.314 -7.697,-21.123 -0.061,-0.048 -1.165,-0.97 -1.165,-0.97 -0.461,-0.435 -0.991,-0.913 -1.604,-1.282 0.131,-0.262 0.374,-0.779 0.505,-1.053 2.8,0.734 5.383,1.874 7.874,2.987 3,1.344 5.827,2.608 9.04,3.222 1.135,0.278 1.936,0.744 2.709,1.196 1.174,0.683 2.278,1.321 4.349,1.234 l 3.191,-0.339 c 1.439,-0.213 2.387,-0.356 3.383,0.1 0.356,0.161 0.844,0.078 1.479,-0.27 2.757,-1.5 7.774,-7.652 8.192,-10.579 0.017,-0.165 0.017,-0.36 0.017,-0.569 0,-2.492 -0.938,-7.797 -3.757,-9.967 -1.408,-1.104 -4.321,-2.578 -6.888,-3.874 -2.043,-1.03 -4.521,-2.287 -4.974,-2.791 7.544,-4.097 14.345,-0.944 14.414,-0.913 7.074,4.557 9.375,6.035 10.188,6.443 0.035,0.026 0.014,0.083 0.053,0.104 0,0 0.034,-0.048 0.043,-0.057 0.313,0.148 0.374,0.109 0.431,0.035 l 0.161,-0.248 -0.326,-0.213 c -0.257,-0.165 0.266,-1.261 0.722,-2.227 1.072,-2.26 2.689,-5.673 1.967,-9.638"
       id="path3089"
       inkscape:connector-curvature="0"
       style="fill:#009036" /><polyline
       points="333.688,355.395 333.688,355.398 333.688,355.398 333.688,355.395  "
       id="polyline3091"
       style="fill:#009036" /><path
       d="m 394.337,388.555 c -1.936,-5.806 -6.983,-9.91 -12.866,-10.458 -5.074,-0.652 -8.762,-0.326 -13.432,0.087 l -3.166,0.27 c -0.773,0 -4.209,1.379 -8.983,3.322 -1.131,0.465 -2.213,0.904 -3.131,1.27 2.609,-2.152 6.758,-6.479 10.279,-10.545 4.062,-4.557 8.68,-10.262 9.471,-12.574 0.587,-1.67 2.078,-11.71 2.156,-12.767 0.009,-0.404 0.018,-0.787 0.018,-1.152 0,-2.618 -0.265,-4.361 -0.504,-5.923 l -0.365,-3.304 c -0.218,-7.354 -1.565,-13.958 -1.578,-14.028 l -0.127,-0.63 -0.383,0.521 c -0.025,0.035 -2.426,3.353 -3.048,4.044 -0.63,0.631 -10.457,7.444 -15.983,10.714 -8.736,5.218 -12.685,11.976 -13.98,14.197 l -0.309,0.521 c -0.813,1.331 -1.743,3.396 -2.639,5.392 -0.84,1.866 -1.631,3.631 -2.209,4.519 -0.817,1.204 -1.787,3.887 -2.496,5.853 -0.313,0.865 -0.613,1.688 -0.722,1.856 -0.574,0.613 -0.805,1.87 -1.026,3.083 -0.126,0.695 -0.27,1.339 -0.47,1.817 -0.091,-0.174 -0.191,-0.392 -0.27,-0.63 -0.026,-0.092 -0.774,-2.613 -5.514,-11.389 -4.383,-8.175 -5.053,-8.118 -13.249,-7.396 l -3.074,0.257 c -9.053,0.661 -15.762,5.331 -19.362,7.84 l -1.661,1.118 c -1.861,1.147 -5.514,6.296 -9.733,12.257 l -4.774,6.671 0.637,-0.065 c 1.118,-0.131 2.161,0.021 3.274,0.183 1.157,0.165 2.359,0.309 3.638,0.13 -0.072,0.344 -0.152,0.691 -0.152,1.04 0,1.738 0.908,3.465 2.587,4.791 2.094,2.092 4.113,3.331 6.729,4.113 0.328,0.014 0.52,0.453 0.697,0.883 0.2,0.466 0.404,0.952 0.794,1.218 l 0.146,0.104 0.191,-0.092 c 0.326,-0.183 0.467,-0.943 0.687,-8.287 0.039,-1.461 0.085,-2.975 0.124,-3.161 1.578,-4.992 5.475,-8.171 10.666,-8.696 1.922,-0.209 7.444,0.486 8.253,4.548 0.022,0.074 1.096,2.474 1.731,3.126 0.008,0.031 1.8,5.175 1.8,5.175 1.104,3.274 1.974,5.861 3.909,9.884 0.265,0.478 0.291,0.982 0.321,1.509 l 0.083,0.843 c 0.087,0.427 0.13,0.879 0.13,1.344 0,1.627 -0.509,3.471 -1.456,5.249 -0.778,1.352 -2.436,3.378 -3.657,3.635 -3.165,0.6 -3.97,0.078 -5.913,-1.191 l -1.801,-1.126 c -1.313,-0.77 -2.561,-6.4 -2.935,-8.506 0.438,-4.296 1.057,-11.718 0.33,-12.305 -0.438,-0.392 -1.273,0.261 -6.344,4.97 -3.074,2.856 -6.898,6.409 -10.056,8.796 -4.507,3.366 -6.746,7.57 -8.385,10.645 -0.711,1.335 -1.326,2.487 -1.927,3.157 -0.853,0.909 -0.526,2.135 -0.215,3.313 l 0.284,1.204 c 0.553,2.817 2.272,4.939 3.934,6.992 l 0.337,0.417 c 1.122,1.549 4.461,5.601 4.493,5.641 0.081,0.073 5.686,5.365 10.247,1.461 6.427,-2.079 9.479,-4.035 9.601,-4.118 2.287,-1.131 4.787,-2.287 6.019,-2.748 -2.07,2.005 -6.21,7.431 -7.653,11.836 -1.439,4.526 -4.427,11.762 -5.191,13.301 l -0.783,1.526 c -1.509,2.97 -5.035,9.923 -5.946,10.888 -1.149,1.148 -1.596,1.939 -0.811,3.07 0.165,0.243 0.353,0.369 0.569,0.392 0.387,0.03 0.713,-0.292 1.122,-0.696 0.387,-0.383 0.87,-0.86 1.518,-1.169 0.926,-0.483 5.983,-5.171 11.331,-10.132 4.271,-3.957 8.684,-8.049 10.119,-9.157 2.952,-2.301 5.187,-4.54 8.014,-7.37 l 0.791,-0.787 c 0,0 7.396,-7.522 8.54,-8.684 0.913,0.574 5.618,3.452 9.288,4.618 2.652,0.521 5.783,0.922 9.078,0 5.871,-1.735 14.775,-8.24 21.211,-13.389 l 0.374,-0.3 -0.435,-0.187 c -1.191,-0.514 -2.557,-0.065 -4.287,0.5 -2.148,0.695 -4.827,1.569 -8.332,0.978 -5.074,-0.743 -6.904,-1.47 -8.239,-2 l -0.922,-0.344 c -0.005,0 -0.548,-0.174 -0.548,-0.174 -3.422,-1.061 -6.962,-2.17 -9.005,-5.135 -0.018,-0.053 -0.026,-0.104 -0.026,-0.165 0,-0.235 0.1,-0.574 0.209,-0.948 l 0.217,-0.892 c 0.466,-1.761 1.809,-2.957 3.104,-4.113 l 1.166,-1.083 c 2.399,-2.913 4.661,-4.792 7.122,-5.935 2.048,-1.049 5.253,-2.361 8.966,-2.688 l 2.235,-0.021 c 2.435,-0.035 4.73,-0.07 7.113,0.309 1.783,0.234 2.257,2.122 2.714,3.948 l 0.121,0.478 c 0.062,1.205 -0.195,2.723 -0.708,4.109 -0.444,0.383 -5.71,0.926 -8.85,1.252 -4.374,0.448 -4.378,0.466 -4.443,0.766 l -0.026,0.113 0.083,0.121 c 1.23,1.888 5.301,2.723 7.622,3.049 6.505,0.913 15.367,0.305 18.341,-2.278 3.896,-3.574 6.783,-7.432 8.354,-11.158 1.804,-4.799 2.203,-8.499 1.212,-11.338"
       id="path3093"
       inkscape:connector-curvature="0"
       style="fill:#ffdd00" /><g
       id="g3095"><path
         d="m 227.443,429.667 c -0.422,0.013 -10.655,5.23 -17.972,2.23 -5.487,-2.253 -5.658,-5.648 -5.941,-7.487 -0.187,-1.231 0.803,-2.81 2.216,-4.235 -2.29,1.722 -4.338,4.122 -4.072,5.853 0.28,1.835 0.452,5.235 5.939,7.483 5.624,2.305 12.971,-0.239 16.258,-1.553 1.554,-1.496 3.846,-2.3 3.572,-2.291 z"
         id="path3097"
         inkscape:connector-curvature="0" /><path
         d="m 235.096,440.933 c -1.879,0.435 -4.636,0.856 -5.882,0.622 -3.633,-0.683 -6.404,-3.183 -6.696,-6.622 -0.078,-0.918 0.287,-1.722 0.842,-2.413 -1.376,0.896 -2.848,2.256 -2.698,4.03 0.289,3.436 3.063,5.936 6.696,6.618 0.23,0.043 0.413,0.091 0.57,0.139 0.676,-0.295 1.098,-0.478 1.098,-0.478 0,0 2.415,-0.757 6.07,-1.896 z"
         id="path3099"
         inkscape:connector-curvature="0" /></g></g><g
     id="g3101"
     transform="translate(-156.17601,-287.53501)"><path
       d="m 161.349,519.588 11.268,-0.705 c 0.244,1.829 0.74,3.224 1.49,4.183 1.22,1.551 2.963,2.326 5.229,2.326 1.69,0 2.993,-0.396 3.908,-1.189 0.915,-0.793 1.373,-1.712 1.373,-2.758 0,-0.993 -0.436,-1.882 -1.307,-2.667 -0.872,-0.784 -2.894,-1.524 -6.065,-2.222 -5.194,-1.168 -8.897,-2.719 -11.111,-4.653 -2.231,-1.935 -3.346,-4.4 -3.346,-7.398 0,-1.97 0.571,-3.83 1.712,-5.582 1.141,-1.751 2.858,-3.128 5.15,-4.13 2.292,-1.003 5.433,-1.504 9.424,-1.504 4.897,0 8.631,0.911 11.202,2.732 2.571,1.821 4.1,4.719 4.588,8.692 l -11.163,0.653 c -0.296,-1.726 -0.919,-2.98 -1.869,-3.765 -0.95,-0.784 -2.262,-1.176 -3.935,-1.176 -1.377,0 -2.414,0.292 -3.111,0.875 -0.697,0.585 -1.045,1.295 -1.045,2.131 0,0.61 0.288,1.159 0.863,1.647 0.558,0.506 1.882,0.976 3.974,1.411 5.176,1.116 8.884,2.244 11.124,3.386 2.239,1.142 3.869,2.558 4.889,4.248 1.02,1.691 1.529,3.582 1.529,5.673 0,2.458 -0.68,4.724 -2.039,6.798 -1.359,2.074 -3.259,3.646 -5.699,4.719 -2.44,1.071 -5.516,1.607 -9.229,1.607 -6.519,0 -11.032,-1.255 -13.542,-3.765 -2.51,-2.51 -3.931,-5.698 -4.262,-9.567 z"
       id="path3103"
       inkscape:connector-curvature="0"
       style="fill:#e2001a" /><path
       d="m 222.08,521.392 10.117,1.15 c -0.558,2.109 -1.473,3.935 -2.745,5.478 -1.272,1.542 -2.897,2.741 -4.875,3.595 -1.979,0.854 -4.493,1.28 -7.542,1.28 -2.946,0 -5.399,-0.274 -7.359,-0.822 -1.961,-0.548 -3.647,-1.437 -5.059,-2.664 -1.412,-1.228 -2.519,-2.668 -3.32,-4.322 -0.802,-1.654 -1.203,-3.849 -1.203,-6.583 0,-2.855 0.488,-5.232 1.464,-7.131 0.714,-1.393 1.69,-2.642 2.928,-3.748 1.237,-1.105 2.51,-1.928 3.817,-2.468 2.074,-0.854 4.732,-1.28 7.974,-1.28 4.531,0 7.986,0.811 10.365,2.432 2.38,1.621 4.048,3.991 5.007,7.11 l -10.013,1.334 c -0.313,-1.186 -0.885,-2.078 -1.713,-2.68 -0.828,-0.602 -1.938,-0.902 -3.333,-0.902 -1.76,0 -3.185,0.631 -4.274,1.893 -1.089,1.261 -1.634,3.17 -1.634,5.728 0,2.279 0.54,4.011 1.621,5.193 1.08,1.183 2.457,1.774 4.13,1.774 1.394,0 2.566,-0.356 3.516,-1.071 0.95,-0.715 1.66,-1.814 2.131,-3.296 z"
       id="path3105"
       inkscape:connector-curvature="0"
       style="fill:#e2001a" /><path
       d="m 235.778,518.464 c 0,-4.235 1.429,-7.725 4.288,-10.47 2.857,-2.745 6.719,-4.118 11.581,-4.118 5.56,0 9.76,1.612 12.601,4.837 2.283,2.597 3.425,5.795 3.425,9.595 0,4.27 -1.416,7.769 -4.248,10.496 -2.832,2.727 -6.749,4.091 -11.751,4.091 -4.462,0 -8.07,-1.132 -10.823,-3.398 -3.383,-2.807 -5.073,-6.484 -5.073,-11.033 z m 10.667,-0.026 c 0,2.476 0.5,4.306 1.503,5.49 1.002,1.186 2.262,1.778 3.777,1.778 1.533,0 2.793,-0.584 3.778,-1.752 0.984,-1.167 1.477,-3.041 1.477,-5.621 0,-2.405 -0.497,-4.195 -1.49,-5.372 -0.993,-1.177 -2.222,-1.765 -3.686,-1.765 -1.552,0 -2.833,0.598 -3.844,1.791 -1.011,1.193 -1.515,3.011 -1.515,5.451 z"
       id="path3107"
       inkscape:connector-curvature="0"
       style="fill:#e2001a" /><path
       d="m 302.051,532.268 -9.935,0 0,-4.497 c -1.481,1.848 -2.977,3.164 -4.483,3.948 -1.508,0.784 -3.359,1.176 -5.556,1.176 -2.928,0 -5.225,-0.875 -6.889,-2.627 -1.664,-1.752 -2.496,-4.448 -2.496,-8.091 l 0,-17.673 10.692,0 0,15.268 c 0,1.743 0.322,2.98 0.967,3.712 0.645,0.732 1.552,1.098 2.719,1.098 1.272,0 2.314,-0.487 3.125,-1.464 0.81,-0.976 1.215,-2.728 1.215,-5.255 l 0,-13.358 10.641,0 0,27.763 z"
       id="path3109"
       inkscape:connector-curvature="0"
       style="fill:#e2001a" /><path
       d="m 321.344,493.941 0,10.563 5.855,0 0,7.79 -5.855,0 0,9.837 c 0,1.183 0.113,1.966 0.34,2.348 0.348,0.592 0.957,0.888 1.83,0.888 0.783,0 1.881,-0.227 3.293,-0.679 l 0.785,7.345 c -2.633,0.575 -5.09,0.862 -7.373,0.862 -2.648,0 -4.602,-0.339 -5.855,-1.018 -1.256,-0.679 -2.184,-1.71 -2.785,-3.094 -0.6,-1.385 -0.9,-3.625 -0.9,-6.724 l 0,-9.766 -3.922,0 0,-7.79 3.922,0 0,-5.098 10.665,-5.464 z"
       id="path3111"
       inkscape:connector-curvature="0"
       style="fill:#e2001a" /><path
       d="m 332.662,493.941 10.641,0 0,7.242 -10.641,0 0,-7.242 z m 0,10.563 10.641,0 0,27.764 -10.641,0 0,-27.764 z"
       id="path3113"
       inkscape:connector-curvature="0"
       style="fill:#e2001a" /><path
       d="m 350.1,504.504 9.908,0 0,4.522 c 1.48,-1.847 2.98,-3.167 4.496,-3.961 1.518,-0.793 3.363,-1.189 5.543,-1.189 2.945,0 5.25,0.876 6.914,2.628 1.666,1.751 2.498,4.457 2.498,8.117 l 0,17.646 -10.693,0 0,-15.267 c 0,-1.742 -0.322,-2.976 -0.967,-3.699 -0.645,-0.723 -1.551,-1.085 -2.719,-1.085 -1.291,0 -2.336,0.488 -3.137,1.464 -0.803,0.977 -1.203,2.729 -1.203,5.255 l 0,13.333 -10.64,0 0,-27.764 z"
       id="path3115"
       inkscape:connector-curvature="0"
       style="fill:#e2001a" /><path
       d="m 405.131,504.504 9.961,0 0,26.222 0.025,1.229 c 0,1.742 -0.371,3.402 -1.111,4.98 -0.74,1.577 -1.725,2.854 -2.953,3.829 -1.23,0.977 -2.789,1.682 -4.68,2.118 -1.893,0.436 -4.057,0.653 -6.498,0.653 -5.576,0 -9.406,-0.837 -11.488,-2.51 -2.084,-1.673 -3.125,-3.913 -3.125,-6.719 0,-0.349 0.018,-0.819 0.053,-1.412 l 10.326,1.177 c 0.262,0.958 0.662,1.621 1.203,1.987 0.783,0.54 1.768,0.811 2.953,0.811 1.533,0 2.68,-0.41 3.438,-1.229 0.76,-0.819 1.139,-2.248 1.139,-4.287 l 0,-4.209 c -1.047,1.237 -2.092,2.135 -3.139,2.692 -1.637,0.872 -3.406,1.308 -5.307,1.308 -3.711,0 -6.709,-1.621 -8.992,-4.862 -1.621,-2.301 -2.432,-5.342 -2.432,-9.124 0,-4.322 1.045,-7.616 3.137,-9.883 2.092,-2.265 4.828,-3.398 8.209,-3.398 2.16,0 3.943,0.366 5.346,1.099 1.404,0.731 2.715,1.943 3.936,3.634 l 0,-4.106 z m -10.014,13.464 c 0,2.004 0.428,3.489 1.281,4.457 0.854,0.967 1.979,1.451 3.373,1.451 1.324,0 2.436,-0.501 3.332,-1.504 0.898,-1.002 1.348,-2.514 1.348,-4.535 0,-2.021 -0.471,-3.568 -1.412,-4.641 -0.941,-1.073 -2.092,-1.607 -3.451,-1.607 -1.359,0 -2.443,0.492 -3.254,1.477 -0.811,0.985 -1.217,2.619 -1.217,4.902 z"
       id="path3117"
       inkscape:connector-curvature="0"
       style="fill:#e2001a" /></g></svg>